<svg width="0" height="0" class="hidden">
  <symbol version="1.0" xmlns="http://www.w3.org/2000/svg" preserveAspectRatio="xMidYMid meet" viewBox="0 0 64.000000 64.000000" id="favourite">
    <g transform="translate(0.000000,64.000000) scale(0.100000,-0.100000)" fill="#000000" stroke="none">
      <path d="M1 548 c0 -82 2 -89 12 -63 28 72 86 115 155 115 52 0 91 -19 126
-60 l26 -32 26 32 c84 99 224 74 278 -50 15 -35 15 -34 16 58 l0 92 -320 0
-320 0 1 -92z"></path>
      <path d="M136 559 c-99 -28 -127 -154 -56 -253 19 -26 81 -88 137 -137 l103
-90 103 90 c56 49 118 111 137 137 81 113 30 257 -91 257 -49 0 -86 -25 -116
-79 -12 -21 -27 -39 -33 -39 -6 0 -21 18 -33 39 -36 65 -92 92 -151 75z"></path>
      <path d="M1 193 l-1 -193 320 0 320 0 -1 193 c0 113 -4 181 -9 165 -16 -52
-72 -119 -185 -218 -62 -55 -119 -100 -125 -100 -6 0 -63 45 -125 100 -113 99
-169 166 -185 218 -5 16 -9 -52 -9 -165z"></path>
    </g>
  </symbol>
  <symbol version="1.0" xmlns="http://www.w3.org/2000/svg" preserveAspectRatio="xMidYMid meet" viewBox="0 0 64.000000 64.000000" id="instagram">
    <g transform="translate(0.000000,64.000000) scale(0.100000,-0.100000)" fill="#000000" stroke="none">
      <path d="M0 503 l1 -138 18 52 c36 104 100 168 204 204 l52 18 -137 1 -138 0
0 -137z"></path>
      <path d="M417 621 c29 -10 70 -30 92 -45 49 -34 89 -91 112 -159 l18 -52 1
138 0 137 -137 0 -138 -1 52 -18z"></path>
      <path d="M169 471 c-29 -29 -29 -30 -29 -151 0 -121 0 -122 29 -151 29 -29 30
-29 151 -29 121 0 122 0 151 29 29 29 29 30 29 151 0 121 0 122 -29 151 -29
29 -30 29 -151 29 -121 0 -122 0 -151 -29z m276 -26 c23 -22 25 -31 25 -125 0
-94 -2 -103 -25 -125 -22 -23 -31 -25 -125 -25 -94 0 -103 2 -125 25 -23 22
-25 31 -25 125 0 141 9 150 150 150 94 0 103 -2 125 -25z"></path>
      <path d="M400 421 c0 -15 6 -21 21 -21 14 0 19 5 17 17 -5 26 -38 29 -38 4z"></path>
      <path d="M255 385 c-35 -34 -35 -96 0 -130 18 -19 35 -25 65 -25 30 0 47 6 65
25 19 18 25 35 25 65 0 56 -34 90 -90 90 -30 0 -47 -6 -65 -25z m105 -25 c11
-11 20 -29 20 -40 0 -25 -34 -60 -58 -60 -30 0 -62 29 -62 57 0 57 61 82 100
43z"></path>
      <path d="M0 138 l0 -138 138 0 137 1 -52 18 c-29 10 -70 30 -92 45 -49 34 -89
91 -112 159 l-18 52 -1 -137z"></path>
      <path d="M623 228 c-26 -96 -102 -174 -206 -209 l-52 -18 138 -1 137 0 0 135
c0 74 -1 135 -3 135 -2 0 -8 -19 -14 -42z"></path>
    </g>
  </symbol>
  <symbol version="1.0" xmlns="http://www.w3.org/2000/svg" preserveAspectRatio="xMidYMid meet" viewBox="0 0 357.000000 89.000000" id="logo">
    <g transform="translate(0.000000,89.000000) scale(0.100000,-0.100000)" fill="#000000" stroke="none"></g>
  </symbol>
  <symbol version="1.0" xmlns="http://www.w3.org/2000/svg" preserveAspectRatio="xMidYMid meet" viewBox="0 0 64.000000 64.000000" id="store">
    <g transform="translate(0.000000,64.000000) scale(0.100000,-0.100000)" fill="#000000" stroke="none">
      <path d="M0 320 l0 -320 68 0 c62 1 65 2 42 15 -45 24 -47 48 -28 257 9 106
17 203 18 216 0 19 5 22 45 22 35 0 47 4 51 18 16 53 35 80 66 95 32 16 30 17
-114 17 l-148 0 0 -320z"></path>
      <path d="M378 623 c31 -15 50 -42 66 -95 4 -14 16 -18 51 -18 40 0 45 -3 45
-22 1 -13 9 -110 18 -216 19 -209 17 -233 -28 -257 -23 -13 -20 -14 43 -15
l67 0 0 320 0 320 -147 0 c-145 0 -147 -1 -115 -17z"></path>
      <path d="M255 575 c-14 -13 -25 -33 -25 -45 0 -19 6 -20 90 -20 84 0 90 1 90
20 0 36 -44 70 -90 70 -30 0 -47 -6 -65 -25z"></path>
      <path d="M115 274 c-17 -192 -17 -207 -1 -222 14 -15 42 -17 206 -17 164 0
192 2 206 17 16 15 16 30 -1 222 l-18 206 -28 0 c-24 0 -28 -4 -31 -32 -2 -21
-8 -33 -18 -33 -10 0 -16 12 -18 33 l-3 32 -89 0 -89 0 -3 -32 c-2 -21 -8 -33
-18 -33 -10 0 -16 12 -18 33 -3 28 -7 32 -31 32 l-28 0 -18 -206z"></path>
    </g>
  </symbol>
  <symbol version="1.0" xmlns="http://www.w3.org/2000/svg" preserveAspectRatio="xMidYMid meet" viewBox="0 0 64.000000 64.000000" id="twitter">
    <g transform="translate(0.000000,64.000000) scale(0.100000,-0.100000)" fill="#000000" stroke="none">
      <path d="M0 503 l1 -138 18 52 c36 104 100 168 204 204 l52 18 -137 1 -138 0
0 -137z"></path>
      <path d="M417 621 c29 -10 70 -30 92 -45 49 -34 89 -91 112 -159 l18 -52 1
138 0 137 -137 0 -138 -1 52 -18z"></path>
      <path d="M340 440 c-11 -11 -20 -31 -20 -44 0 -22 -2 -23 -36 -16 -19 5 -53
20 -74 34 -22 14 -42 26 -45 26 -9 0 -5 -41 5 -61 7 -13 7 -19 0 -19 -16 0
-12 -28 8 -48 10 -10 17 -23 15 -29 -4 -11 18 -38 39 -46 18 -8 -10 -27 -39
-27 -40 0 -34 -19 9 -31 87 -23 174 9 225 84 17 26 34 66 38 89 4 24 14 51 23
61 15 17 14 17 -4 11 -17 -7 -18 -6 -4 11 14 17 13 18 -12 12 -15 -4 -30 -3
-33 3 -11 18 -74 11 -95 -10z"></path>
      <path d="M0 138 l0 -138 138 0 137 1 -52 18 c-29 10 -70 30 -92 45 -49 34 -89
91 -112 159 l-18 52 -1 -137z"></path>
      <path d="M623 228 c-26 -96 -102 -174 -206 -209 l-52 -18 138 -1 137 0 0 135
c0 74 -1 135 -3 135 -2 0 -8 -19 -14 -42z"></path>
    </g>
  </symbol>
  <symbol version="1.0" xmlns="http://www.w3.org/2000/svg" preserveAspectRatio="xMidYMid meet" viewBox="0 0 64.000000 64.000000" id="whatsapp">
    <g transform="translate(0.000000,64.000000) scale(0.100000,-0.100000)" fill="#000000" stroke="none">
      <path d="M0 503 l1 -138 18 52 c36 104 100 168 204 204 l52 18 -137 1 -138 0
0 -137z"></path>
      <path d="M417 621 c29 -10 70 -30 92 -45 49 -34 89 -91 112 -159 l18 -52 1
138 0 137 -137 0 -138 -1 52 -18z"></path>
      <path d="M266 506 c-44 -16 -91 -58 -113 -99 -17 -34 -19 -127 -3 -156 8 -15
8 -32 0 -59 -16 -60 -16 -61 37 -48 39 10 55 10 88 -2 92 -32 209 33 235 129
40 149 -103 287 -244 235z m144 -49 c97 -64 96 -200 -1 -265 -30 -21 -41 -23
-94 -17 -33 4 -76 7 -96 7 -35 0 -36 2 -30 26 5 16 2 38 -7 55 -19 38 -11 116
16 154 45 64 149 83 212 40z"></path>
      <path d="M236 394 c-13 -33 -5 -56 35 -99 47 -51 97 -72 129 -55 27 14 26 46
-2 54 -13 3 -27 1 -32 -4 -16 -16 -32 -12 -60 17 -17 17 -24 32 -21 45 14 43
-33 84 -49 42z"></path>
      <path d="M0 138 l0 -138 138 0 137 1 -52 18 c-29 10 -70 30 -92 45 -49 34 -89
91 -112 159 l-18 52 -1 -137z"></path>
      <path d="M623 228 c-26 -96 -102 -174 -206 -209 l-52 -18 138 -1 137 0 0 135
c0 74 -1 135 -3 135 -2 0 -8 -19 -14 -42z"></path>
    </g>
  </symbol>
  <symbol version="1.0" xmlns="http://www.w3.org/2000/svg" preserveAspectRatio="xMidYMid meet" viewBox="0 0 64.000000 64.000000" id="facebook">
    <g transform="translate(0.000000,64.000000) scale(0.100000,-0.100000)" fill="#000000" stroke="none">
      <path d="M0 503 l1 -138 18 52 c36 104 100 168 204 204 l52 18 -137 1 -138 0
0 -137z"></path>
      <path d="M417 621 c29 -10 70 -30 92 -45 49 -34 89 -91 112 -159 l18 -52 1
138 0 137 -137 0 -138 -1 52 -18z"></path>
      <path d="M344 549 c-49 -14 -67 -42 -72 -109 l-4 -60 -34 0 c-33 0 -34 -1 -34
-40 0 -39 1 -40 35 -40 l35 0 0 -111 0 -110 43 3 42 3 3 108 3 107 39 0 c40 0
40 0 40 40 l0 40 -40 0 -40 0 0 44 c0 46 9 56 56 56 21 0 24 4 24 40 0 39 -1
40 -32 39 -18 0 -47 -5 -64 -10z"></path>
      <path d="M0 138 l0 -138 138 0 137 1 -52 18 c-29 10 -70 30 -92 45 -49 34 -89
91 -112 159 l-18 52 -1 -137z"></path>
      <path d="M623 228 c-26 -96 -102 -174 -206 -209 l-52 -18 138 -1 137 0 0 135
c0 74 -1 135 -3 135 -2 0 -8 -19 -14 -42z"></path>
    </g>
  </symbol>
</svg>